<?xml version="1.0" encoding="utf-8"?>
<!-- Generator: Adobe Illustrator 25.4.1, SVG Export Plug-In . SVG Version: 6.00 Build 0)  -->
<svg version="1.1" id="图层_1" xmlns="http://www.w3.org/2000/svg" xmlns:xlink="http://www.w3.org/1999/xlink" x="0px" y="0px"
	 viewBox="0 0 400 529.02" style="enable-background:new 0 0 400 529.02;" xml:space="preserve">
<style type="text/css">
	.st0{font-family:'AdobeSongStd-Light-GBpc-EUC-H';}
	.st1{font-size:12px;}
	.st2{fill:#39B54A;}
	.st3{fill:#736357;}
	.st4{fill:#0071BC;}
	.st5{fill:#FF00FF;}
	.st6{font-family:'TimesNewRomanPSMT';}
	.st7{font-family:'TimesNewRomanPS-BoldMT';}
</style>
<text transform="matrix(1 0 0 1 19.9951 26.1055)" class="st0 st1">图例</text>
<rect x="20.81" y="39.13" class="st2" width="52.19" height="13.03"/>
<rect x="21.53" y="72.42" class="st3" width="52.19" height="13.03"/>
<rect x="20.81" y="105.7" class="st4" width="52.19" height="13.03"/>
<rect x="20.81" y="138.99" class="st5" width="52.19" height="13.03"/>
<rect x="24.45" y="211.35" class="st2" width="346.68" height="13.03"/>
<rect x="28.07" y="317" class="st2" width="346.68" height="13.03"/>
<rect x="25.75" y="447.25" class="st2" width="299.79" height="13.03"/>
<text transform="matrix(1 0 0 1 91.6406 49.9849)" class="st0 st1">HTML 解析</text>
<text transform="matrix(1 0 0 1 92.0967 83.1211)" class="st0 st1">HTML 解析暂停</text>
<text transform="matrix(1 0 0 1 92.5527 118.7286)" class="st0 st1">脚本下载</text>
<text transform="matrix(1 0 0 1 92.0967 152.0151)" class="st0 st1">脚本执行</text>
<text transform="matrix(1 0 0 1 23.0703 186.3867)"><tspan x="0" y="0" class="st0 st1">1.</tspan><tspan x="8.4" y="0" class="st6 st1"> &lt;script&gt;</tspan></text>
<rect x="134.87" y="211.35" class="st3" width="128.44" height="13.03"/>
<rect x="134.87" y="224.38" class="st4" width="82.85" height="13.03"/>
<rect x="134.87" y="329.3" class="st4" width="82.85" height="13.03"/>
<rect x="134.87" y="460.28" class="st4" width="82.85" height="13.03"/>
<rect x="217.72" y="237.4" class="st5" width="45.59" height="13.03"/>
<rect x="217.72" y="317" class="st3" width="45.59" height="13.03"/>
<rect x="217.72" y="342.33" class="st5" width="45.59" height="13.03"/>
<rect x="325.54" y="473.3" class="st5" width="45.59" height="13.03"/>
<text transform="matrix(1 0 0 1 25.603 275.7539)"><tspan x="0" y="0" class="st0 st1">2. </tspan><tspan x="10.88" y="0" class="st7 st1">&lt;script async&gt;</tspan></text>
<text transform="matrix(1 0 0 1 27.7739 404.1963)"><tspan x="0" y="0" class="st0 st1">3. </tspan><tspan x="10.88" y="0" class="st7 st1">&lt;script defer&gt;</tspan></text>
</svg>
